<svg id="Layer_1" data-name="Layer 1" xmlns="http://www.w3.org/2000/svg" viewBox="0 0 545.16 545.16"><defs><style>.cls-1{font-size:65px;font-family:Sniglet-Regular, Sniglet;}</style></defs><title>loading</title><text class="cls-1" transform="translate(409.97 439.93) rotate(146.18)">L</text><text class="cls-1" transform="matrix(-0.93, 0.38, -0.38, -0.93, 376.8, 462.79)">O</text><text class="cls-1" transform="matrix(-0.99, 0.17, -0.17, -0.99, 333.88, 480.56)">A</text><text class="cls-1" transform="matrix(-1, -0.03, 0.03, -1, 288.19, 488.52)">D</text><text class="cls-1" transform="matrix(-0.98, -0.19, 0.19, -0.98, 245.46, 486.6)">I</text><text class="cls-1" transform="translate(220.12 483.08) rotate(-158.84)">N</text><text class="cls-1" transform="matrix(-0.83, -0.56, 0.56, -0.83, 172.36, 464.6)">G</text><text class="cls-1" transform="translate(133.8 437.45) rotate(-136.05)"> </text><text class="cls-1" transform="matrix(-0.63, -0.78, 0.78, -0.63, 114.66, 419.11)"> </text><text class="cls-1" transform="translate(97.87 398.58) rotate(-122.03)"> </text><text class="cls-1" transform="translate(83.75 376.16) rotate(-114.92)"> </text><text class="cls-1" transform="translate(72.51 352.16) rotate(-107.83)"> </text><text class="cls-1" transform="matrix(-0.19, -0.98, 0.98, -0.19, 64.32, 326.96)"> </text><text class="cls-1" transform="translate(59.29 300.94) rotate(-93.74)"> </text><text class="cls-1" transform="translate(57.47 274.5) rotate(-86.74)"> </text><text class="cls-1" transform="matrix(0.18, -0.98, 0.98, 0.18, 58.9, 248.03)"> </text><text class="cls-1" transform="matrix(0.3, -0.95, 0.95, 0.3, 63.56, 221.91)"> </text><text class="cls-1" transform="translate(71.38 196.6) rotate(-65.57)"> </text><text class="cls-1" transform="matrix(0.52, -0.85, 0.85, 0.52, 82.26, 172.44)"> </text><text class="cls-1" transform="translate(96.04 149.83) rotate(-51.39)"> </text><text class="cls-1" transform="matrix(0.7, -0.71, 0.71, 0.7, 112.74, 129.15)"> </text><text class="cls-1" transform="matrix(0.79, -0.61, 0.61, 0.79, 131.42, 110.44)"> </text><text class="cls-1" transform="translate(151.82 93.96) rotate(-28.5)">L</text><text class="cls-1" transform="translate(187 74.27) rotate(-16.89)">O</text><text class="cls-1" transform="matrix(1, -0.08, 0.08, 1, 231.37, 60.56)">A</text><text class="cls-1" transform="translate(277.62 56.83) rotate(7.11)">D</text><text class="cls-1" transform="translate(319.97 62.66) rotate(16.19)">I</text><text class="cls-1" transform="translate(344.89 68.5) rotate(26.49)">N</text><text class="cls-1" transform="translate(390.72 91.34) rotate(39.55)">G</text></svg>